<?xml version="1.0" encoding="utf-8"?>
<!-- Generator: Adobe Illustrator 24.2.1, SVG Export Plug-In . SVG Version: 6.00 Build 0)  -->
<svg version="1.1" id="Layer_1" xmlns="http://www.w3.org/2000/svg" xmlns:xlink="http://www.w3.org/1999/xlink" x="0px" y="0px"
	 viewBox="0 0 100 100" style="enable-background:new 0 0 100 100;" xml:space="preserve">
<style type="text/css">
	.st0{fill:#3E428C;}
	.st1{fill:#369E27;}
	.st2{fill:url(#SVGID_1_);}
	.st3{fill:#D8DD28;}
	.st4{fill:#F31316;}
	.st5{fill:url(#SVGID_2_);}
	.st6{fill:url(#SVGID_3_);}
	.st7{fill:url(#SVGID_4_);}
</style>
<path class="st0" d="M85.4,14.7l-5.3,5.3c7.7,7.7,12.5,18.3,12.5,30.1c0,11.7-4.8,22.4-12.5,30.1l5.2,5.3
	C104.7,65.9,104.8,34.2,85.4,14.7z"/>
<path class="st1" d="M50,7.5c11.7,0,22.3,4.7,30,12.4l5.3-5.3C65.8-4.9,34.2-4.8,14.7,14.7l5.3,5.3C27.6,12.2,38.3,7.5,50,7.5z"/>
<linearGradient id="SVGID_1_" gradientUnits="userSpaceOnUse" x1="50" y1="25" x2="100" y2="25">
	<stop  offset="0" style="stop-color:#18941D"/>
	<stop  offset="1" style="stop-color:#38318A"/>
</linearGradient>
<path class="st2" d="M50,0v7.5c23.5,0,42.5,19,42.5,42.5h7.5C100,22.4,77.6,0,50,0z"/>
<path class="st3" d="M19.9,20l-5.3-5.3C-4.9,34.2-4.8,65.8,14.7,85.3l5.3-5.3C12.2,72.4,7.5,61.7,7.5,50C7.5,38.3,12.2,27.7,19.9,20
	z"/>
<path class="st4" d="M50,92.5c-11.7,0-22.4-4.8-30.1-12.5l-5.3,5.3c19.5,19.4,51.2,19.4,70.7,0l-5.3-5.3
	C72.4,87.8,61.7,92.5,50,92.5z"/>
<linearGradient id="SVGID_2_" gradientUnits="userSpaceOnUse" x1="0" y1="25" x2="50" y2="25">
	<stop  offset="0" style="stop-color:#FFE600"/>
	<stop  offset="1" style="stop-color:#18941D"/>
</linearGradient>
<path class="st5" d="M50,7.5V0C22.4,0,0,22.4,0,50h7.5C7.5,26.5,26.5,7.5,50,7.5z"/>
<linearGradient id="SVGID_3_" gradientUnits="userSpaceOnUse" x1="0" y1="75" x2="50" y2="75">
	<stop  offset="0" style="stop-color:#FFE600"/>
	<stop  offset="1" style="stop-color:#FF0000"/>
</linearGradient>
<path class="st6" d="M7.5,50H0c0,27.6,22.4,50,50,50v-7.5C26.5,92.5,7.5,73.5,7.5,50z"/>
<linearGradient id="SVGID_4_" gradientUnits="userSpaceOnUse" x1="50" y1="75" x2="100" y2="75">
	<stop  offset="0" style="stop-color:#FF0000"/>
	<stop  offset="1" style="stop-color:#38318A"/>
</linearGradient>
<path class="st7" d="M92.5,50c0,23.5-19,42.5-42.5,42.5v7.5c27.6,0,50-22.4,50-50H92.5z"/>
</svg>
