<svg xmlns="http://www.w3.org/2000/svg" width="17" height="13" viewBox="0 0 17 13">
    <path fill="#2D2E2C" fill-rule="evenodd" d="M17 1.538a7.305 7.305 0 0 1-2.002.517A3.34 3.34 0 0 0 16.53.24a7.301 7.301 0 0 1-2.216.797A3.582 3.582 0 0 0 11.77 0C9.843 0 8.282 1.47 8.282 3.282c0 .257.03.508.09.748C5.474 3.893 2.904 2.586 1.184.6a3.114 3.114 0 0 0-.471 1.65c0 1.14.616 2.144 1.55 2.732A3.654 3.654 0 0 1 .685 4.57v.041c0 1.59 1.203 2.918 2.797 3.22a3.74 3.74 0 0 1-.919.115c-.225 0-.443-.021-.656-.061.444 1.305 1.731 2.254 3.257 2.28a7.278 7.278 0 0 1-4.331 1.403c-.282 0-.559-.016-.832-.045A10.307 10.307 0 0 0 5.346 13c6.415 0 9.921-5.002 9.921-9.34l-.011-.426A6.755 6.755 0 0 0 17 1.538z"/>
</svg>
