<svg xmlns="http://www.w3.org/2000/svg" width="19" height="13" viewBox="0 0 19 13">
    <path fill="#2D2E2C" fill-rule="nonzero" d="M18.672 2.091A2.385 2.385 0 0 0 16.618.258C14.262 0 11.877-.002 9.503 0 7.129 0 4.743 0 2.388.258 1.393.368.568 1.1.335 2.091.004 3.504 0 5.046 0 6.501c0 1.453 0 2.995.331 4.408a2.384 2.384 0 0 0 2.053 1.832C4.74 13 7.125 13.001 9.5 13c2.375.001 4.76 0 7.115-.259a2.385 2.385 0 0 0 2.054-1.832C18.998 9.496 19 7.954 19 6.5c0-1.454.003-2.996-.328-4.409zM7.048 9.395V3.227l6.04 3.093-6.04 3.075z"/>
</svg>
